<svg xmlns="http://www.w3.org/2000/svg" version="1.1" xmlns:xlink="http://www.w3.org/1999/xlink" xmlns:svgjs="http://svgjs.dev/svgjs" width="2000" height="1500" viewBox="0 0 2000 1500"><rect width="2000" height="1500" fill="#ffffff"></rect><g transform="matrix(0.75,0,0,0.75,249.67638483964993,0.05154664723022506)"><svg viewBox="0 0 343 343" data-background-color="#ffffff" preserveAspectRatio="xMidYMid meet" height="1999" width="2000" xmlns="http://www.w3.org/2000/svg" xmlns:xlink="http://www.w3.org/1999/xlink"><g id="tight-bounds" transform="matrix(1,0,0,1,0.0740000000000407,0.07400000000001228)"><svg viewBox="0 0 342.85155851775386 342.85155851775386" height="342.85155851775386" width="342.85155851775386"><g><svg></svg></g><g><svg viewBox="0 0 342.85155851775386 342.85155851775386" height="342.85155851775386" width="342.85155851775386"><g><path d="M0 171.426c0-94.676 76.75-171.426 171.426-171.426 94.676 0 171.426 76.75 171.426 171.426 0 94.676-76.75 171.426-171.426 171.426-94.676 0-171.426-76.75-171.426-171.426zM171.426 339.293c92.711 0 167.868-75.157 167.867-167.867 0-92.711-75.157-167.868-167.867-167.868-92.711 0-167.868 75.157-167.868 167.868 0 92.711 75.157 167.868 167.868 167.867z" data-fill-palette-color="tertiary" fill="#35185a" stroke="transparent"></path><ellipse rx="164.56874808852186" ry="164.56874808852186" cx="171.42577925887693" cy="171.42577925887693" fill="#35185a" stroke="transparent" stroke-width="0" fill-opacity="1" data-fill-palette-color="tertiary"></ellipse></g><g transform="matrix(1,0,0,1,64.84655864529837,119.77708737666921)"><svg viewBox="0 0 213.1584412271571 103.29738376441541" height="103.29738376441541" width="213.1584412271571"><g><svg viewBox="0 0 213.1584412271571 103.29738376441541" height="103.29738376441541" width="213.1584412271571"><g><svg viewBox="0 0 213.1584412271571 103.29738376441541" height="103.29738376441541" width="213.1584412271571"><g transform="matrix(1,0,0,1,0,63.84192725191715)"><svg viewBox="0 0 213.1584412271571 39.455456512498266" height="39.455456512498266" width="213.1584412271571"><g id="textblocktransform"><svg viewBox="0 0 213.1584412271571 39.455456512498266" height="39.455456512498266" width="213.1584412271571" id="textblock"><g><svg viewBox="0 0 213.1584412271571 39.455456512498266" height="39.455456512498266" width="213.1584412271571"><g transform="matrix(1,0,0,1,0,0)"><svg width="213.1584412271571" viewBox="4 -40.45 236.88 43.85" height="39.455456512498266" data-palette-color="#ffffff"><path d="M13.25-5L21.5-5Q22.85-5 24-5.73 25.15-6.45 25.15-8.15L25.15-8.15 25.05-31.3Q25.05-32.55 24.3-33.6 23.55-34.65 21.65-34.65L21.65-34.65 13.25-34.65Q11.4-34.65 10.63-33.6 9.85-32.55 9.85-31.3L9.85-31.3 9.85-8.4Q9.85-7.1 10.63-6.05 11.4-5 13.25-5L13.25-5ZM21.9-11.6L21.9-11.6Q21.9-9.85 20.7-8.65 19.5-7.45 17.75-7.45L17.75-7.45Q16.05-7.45 14.85-8.65 13.65-9.85 13.65-11.6L13.65-11.6Q13.65-13.3 14.85-14.5 16.05-15.7 17.75-15.7L17.75-15.7Q19.5-15.7 20.7-14.5 21.9-13.3 21.9-11.6ZM29.75-3.65L32.95-0.4Q33.45 0.1 33.45 0.85L33.45 0.85Q33.45 1.25 33.25 1.65 33.05 2.05 32.6 2.45L32.6 2.45Q31.7 3.4 31 3.4L31 3.4Q30.45 3.4 29.8 2.75L29.8 2.75 26.35-0.7Q24.4 0.05 22.95 0.05L22.95 0.05 12.05 0.05Q10.75 0.05 9.38-0.48 8-1 6.7-1.95L6.7-1.95Q4-3.95 4-8L4-8 4-31.75Q4-33.75 4.7-35.27 5.4-36.8 6.7-37.75L6.7-37.75 6.65-37.75Q7.9-38.6 9.33-39.15 10.75-39.7 12.05-39.7L12.05-39.7 22.95-39.7Q24.2-39.7 25.6-39.15 27-38.6 28.3-37.75L28.3-37.75 28.25-37.75Q29.55-36.8 30.25-35.27 30.95-33.75 30.95-31.75L30.95-31.75 30.95-8Q30.95-6.8 30.63-5.7 30.3-4.6 29.75-3.65L29.75-3.65ZM52.65-15.6L49.1-1.55 49.15-1.6Q48.8-0.45 47.8-0.1 46.8 0.25 45.8 0.25L45.8 0.25Q44.85 0.25 43.82-0.1 42.8-0.45 42.5-1.6L42.5-1.6 42.55-1.55 36-27.45Q35.4-29.55 37.95-30.25L37.95-30.25Q40.4-30.9 41.1-28.55L41.1-28.55 41.1-28.6 45.15-12.3 46.5-12.3 50.55-28.6Q50.8-29.65 51.67-29.98 52.55-30.3 53.3-30.3L53.3-30.3Q54.15-30.3 54.97-29.93 55.8-29.55 56.1-28.6L56.1-28.6Q56.55-26.8 56.92-25.25 57.3-23.7 57.65-22.25 58-20.8 58.32-19.4 58.65-18 59.05-16.5L59.05-16.5 60.15-12.25 61.5-12.25Q62.5-16.3 63.52-20.43 64.55-24.55 65.55-28.6L65.55-28.6 65.5-28.55Q66.2-30.9 68.65-30.25L68.65-30.25Q71.2-29.65 70.6-27.45L70.6-27.45 64.1-1.55 64.15-1.6Q63.85-0.45 62.82-0.1 61.8 0.25 60.8 0.25L60.8 0.25Q59.85 0.25 58.85-0.1 57.85-0.45 57.5-1.6L57.5-1.6 57.55-1.55 54-15.6 52.65-15.6ZM80.15-27.9L80.15-2.1Q80.15 0.3 77.4 0.3L77.4 0.3Q74.6 0.3 74.6-2.1L74.6-2.1 74.6-27.9Q74.6-30.3 77.4-30.3L77.4-30.3Q80.15-30.3 80.15-27.9L80.15-27.9ZM81.2-36.6L81.2-36.6Q81.2-35 80.1-33.9 79-32.8 77.4-32.8L77.4-32.8Q75.8-32.8 74.67-33.9 73.55-35 73.55-36.6L73.55-36.6Q73.55-38.25 74.67-39.35 75.8-40.45 77.4-40.45L77.4-40.45Q79-40.45 80.1-39.35 81.2-38.25 81.2-36.6ZM108.54-26.5L92.59-8.35 92.59-2Q92.59 0.35 89.84 0.35L89.84 0.35Q87.09 0.35 87.09-2L87.09-2 87.09-37.6Q87.09-40 89.84-40L89.84-40Q92.59-40 92.59-37.6L92.59-37.6 92.59-16.4Q93.84-17.9 95.37-19.63 96.89-21.35 98.42-23.13 99.94-24.9 101.44-26.63 102.94-28.35 104.24-29.85L104.24-29.85 104.24-29.8Q105.14-30.85 106.04-30.85L106.04-30.85Q106.54-30.85 107.02-30.63 107.49-30.4 108.04-30L108.04-30 107.99-30Q109.19-29 109.19-28L109.19-28Q109.19-27.65 109.04-27.23 108.89-26.8 108.54-26.5L108.54-26.5ZM103.79-13.75L109.29-3.35Q109.64-2.7 109.64-2L109.64-2Q109.64-0.7 108.14-0.05L108.14-0.05Q107.14 0.55 106.34 0.55L106.34 0.55Q105.79 0.55 105.29 0.18 104.79-0.2 104.49-0.75L104.49-0.75 99.49-10.4Q99.04-11.15 99.04-11.9L99.04-11.9Q99.04-13.15 100.34-14L100.34-14Q100.69-14.25 101.07-14.45 101.44-14.65 101.89-14.75L101.89-14.75Q102.44-14.85 102.94-14.55 103.44-14.25 103.79-13.75L103.79-13.75ZM142.54-34.65L142.54-2Q142.54 0.4 139.54 0.4L139.54 0.4Q136.59 0.4 136.59-2L136.59-2 136.59-34.65 127.84-34.65Q126.04-34.65 125.94-37.2L125.94-37.2Q125.94-39.7 127.84-39.7L127.84-39.7 151.29-39.7Q153.19-39.7 153.09-37.2L153.09-37.2Q153.09-34.65 151.29-34.65L151.29-34.65 142.54-34.65ZM171.19 0L164.64 0Q163.09 0 161.69-0.43 160.29-0.85 158.99-1.65L158.99-1.65 158.99-1.6Q156.54-3.15 156.54-7.3L156.54-7.3 156.54-9.75Q156.54-11.8 157.26-13.33 157.99-14.85 159.29-15.75L159.29-15.75 159.24-15.75Q160.49-16.6 161.89-17.03 163.29-17.45 164.59-17.45L164.59-17.45 175.64-17.45 175.64-22.1Q175.64-23.35 174.86-24.38 174.09-25.4 172.24-25.4L172.24-25.4 166.39-25.4Q164.49-25.4 163.76-24.48 163.04-23.55 163.04-22.3L163.04-22.3 163.04-21.9Q163.04-19.3 160.24-19.3L160.24-19.3Q157.44-19.3 157.44-21.9L157.44-21.9 157.44-22.35Q157.44-24.4 158.16-25.8 158.89-27.2 160.14-28.15L160.14-28.15 160.09-28.15Q161.39-29 162.81-29.55 164.24-30.1 165.54-30.1L165.54-30.1 173.14-30.1Q174.39-30.1 175.81-29.55 177.24-29 178.49-28.15L178.49-28.15 178.44-28.15Q179.74-27.2 180.44-25.68 181.14-24.15 181.14-22.15L181.14-22.15 181.14-2.1Q181.14 0.3 178.39 0.3L178.39 0.3Q177.84 0.3 177.36 0.25 176.89 0.2 176.51-0.03 176.14-0.25 175.91-0.68 175.69-1.1 175.69-1.8L175.69-1.8 175.64-12.75 165.54-12.75Q164.44-12.75 163.84-12.5 163.24-12.25 162.89-11.7L162.89-11.7Q162.49-10.85 162.31-10.38 162.14-9.9 162.14-9.3L162.14-9.3 162.14-7.35Q162.14-6.05 162.91-5.38 163.69-4.7 165.59-4.7L165.59-4.7 171.19-4.7Q173.04-4.7 173.04-2.35L173.04-2.35Q173.04-1.35 172.59-0.68 172.14 0 171.19 0L171.19 0ZM196.48-17.5L203.83-17.5Q205.08-17.5 206.51-16.93 207.93-16.35 209.18-15.5L209.18-15.5 209.13-15.5Q210.43-14.55 211.13-13.05 211.83-11.55 211.83-9.45L211.83-9.45 211.83-7.95Q211.83-3.85 209.13-1.9L209.13-1.9Q207.83-0.9 206.48-0.45 205.13 0 203.83 0L203.83 0 195.33 0Q194.03 0 192.68-0.45 191.33-0.9 190.03-1.9L190.03-1.9Q187.33-3.8 187.33-7.95L187.33-7.95 187.33-8.55Q187.33-10.7 190.08-10.65L190.08-10.65Q192.88-10.65 192.88-8.55L192.88-8.55 192.88-8Q192.88-6.8 193.63-5.75 194.38-4.7 196.28-4.7L196.28-4.7 202.88-4.7Q204.78-4.7 205.53-5.75 206.28-6.8 206.28-8L206.28-8 206.28-9.4Q206.28-10.05 206.11-10.65 205.93-11.25 205.53-11.73 205.13-12.2 204.48-12.5 203.83-12.8 202.88-12.8L202.88-12.8 195.58-12.8Q193.03-12.8 190.23-14.6L190.23-14.6Q187.58-16.3 187.58-20.45L187.58-20.45 187.58-22.15Q187.58-24.15 188.28-25.68 188.98-27.2 190.28-28.15L190.28-28.15 190.23-28.15Q191.48-29 192.88-29.55 194.28-30.1 195.58-30.1L195.58-30.1 203.58-30.1Q204.88-30.1 206.26-29.55 207.63-29 208.93-28.15L208.93-28.15 208.88-28.15Q210.18-27.2 210.88-25.68 211.58-24.15 211.58-22.15L211.58-22.15 211.58-21.7Q211.58-20.65 210.88-20.18 210.18-19.7 208.83-19.65L208.83-19.65Q206.08-19.6 206.08-21.7L206.08-21.7 206.08-22.1Q206.08-23.35 205.31-24.38 204.53-25.4 202.68-25.4L202.68-25.4 196.48-25.4Q194.63-25.4 193.86-24.38 193.08-23.35 193.08-22.1L193.08-22.1 193.08-20.9Q193.08-19.6 193.86-18.55 194.63-17.5 196.48-17.5L196.48-17.5ZM239.78-26.5L223.83-8.35 223.83-2Q223.83 0.35 221.08 0.35L221.08 0.35Q218.33 0.35 218.33-2L218.33-2 218.33-37.6Q218.33-40 221.08-40L221.08-40Q223.83-40 223.83-37.6L223.83-37.6 223.83-16.4Q225.08-17.9 226.61-19.63 228.13-21.35 229.66-23.13 231.18-24.9 232.68-26.63 234.18-28.35 235.48-29.85L235.48-29.85 235.48-29.8Q236.38-30.85 237.28-30.85L237.28-30.85Q237.78-30.85 238.26-30.63 238.73-30.4 239.28-30L239.28-30 239.23-30Q240.43-29 240.43-28L240.43-28Q240.43-27.65 240.28-27.23 240.13-26.8 239.78-26.5L239.78-26.5ZM235.03-13.75L240.53-3.35Q240.88-2.7 240.88-2L240.88-2Q240.88-0.7 239.38-0.05L239.38-0.05Q238.38 0.55 237.58 0.55L237.58 0.55Q237.03 0.55 236.53 0.18 236.03-0.2 235.73-0.75L235.73-0.75 230.73-10.4Q230.28-11.15 230.28-11.9L230.28-11.9Q230.28-13.15 231.58-14L231.58-14Q231.93-14.25 232.31-14.45 232.68-14.65 233.13-14.75L233.13-14.75Q233.68-14.85 234.18-14.55 234.68-14.25 235.03-13.75L235.03-13.75Z" opacity="1" transform="matrix(1,0,0,1,0,0)" fill="#ffffff" class="wordmark-text-0" data-fill-palette-color="quaternary" id="text-0"></path></svg></g></svg></g></svg></g></svg></g><g transform="matrix(1,0,0,1,81.79040819263838,0)"><svg viewBox="0 0 49.577624841880336 54.52744090027261" height="54.52744090027261" width="49.577624841880336"><g><svg xmlns="http://www.w3.org/2000/svg" xmlns:xlink="http://www.w3.org/1999/xlink" version="1.0" x="0" y="0" viewBox="2 0 12.883127534945315 14.169375348513816" style="enable-background:new 0 0 16 16;" xml:space="preserve" height="54.52744090027261" width="49.577624841880336" class="icon-icon-0" data-fill-palette-color="quaternary" id="icon-0"><path d="M10.216 14.068c-0.122 0.135-0.322 0.135-0.444 0.001l-2.769-3.084c-0.123-0.135-0.118-0.351 0.011-0.479l0.475-0.476c0.129-0.128 0.338-0.127 0.464 0.004L9.758 11.9c0.127 0.131 0.332 0.128 0.454-0.007l3.424-3.752c0.123-0.134 0.334-0.145 0.47-0.022l0.42 0.33c0.458 0.458 0.494 0.506 0 1L10.216 14.068z" fill="#ffffff" data-fill-palette-color="quaternary"></path><path d="M7.5 2C7 2 7 3 7 3h1C8 3 8 2 7.5 2z" fill="#ffffff" data-fill-palette-color="quaternary"></path><path d="M12 2h-2C9.914 1 9 0 7.5 0S5.086 1 5 2H3c0 0-1 0-1 1 0 0.815 0 9 0 10s1 1 1 1h5.628l-2.5-2.485c-0.42-0.461-0.191-1.052 0.25-1.492l0.75-0.747c0.217-0.217 0.444-0.248 0.75-0.248 0.309 0 0.785 0.279 1 0.502l1.145 1.25L13 7.571C13 7.571 13 4 13 3S12 2 12 2zM4.5 8H4c0 0-0.5 0-0.5-0.5S4 7 4 7h0.5C4.5 7 5 7 5 7.5S4.5 8 4.5 8zM4.5 6H4c0 0-0.5 0-0.5-0.5S4 5 4 5h0.5C4.5 5 5 5 5 5.5S4.5 6 4.5 6zM11 8H6.5C6.5 8 6 8 6 7.5S6.5 7 6.5 7H11c0 0 0.5 0 0.5 0.5S11 8 11 8zM11 6H6.5C6.5 6 6 6 6 5.5S6.5 5 6.5 5H11c0 0 0.5 0 0.5 0.5S11 6 11 6zM3 4c0 0 0-1 1-1s2 0 2 0 0-1.938 1.5-1.938S9.027 3 9 3c0 0 1 0 2 0s1 1 1 1H3z" fill="#ffffff" data-fill-palette-color="quaternary"></path></svg></g></svg></g><g></g></svg></g></svg></g></svg></g></svg></g><defs></defs></svg><rect width="342.85155851775386" height="342.85155851775386" fill="none" stroke="none" visibility="hidden"></rect></g></svg></g></svg>