<svg xmlns="http://www.w3.org/2000/svg" version="1.1" xmlns:xlink="http://www.w3.org/1999/xlink" xmlns:svgjs="http://svgjs.dev/svgjs" width="128" height="128" viewBox="0 0 128 128"><g transform="matrix(0.8046875,0,0,0.8046875,12.41184074821259,12.814873242367177)"><svg viewBox="0 0 98 98" data-background-color="#ffffff" preserveAspectRatio="xMidYMid meet" height="127" width="128" xmlns="http://www.w3.org/2000/svg" xmlns:xlink="http://www.w3.org/1999/xlink"><g id="tight-bounds" transform="matrix(1,0,0,1,0.08387967645792571,0.08387967645792571)"><svg viewBox="0 0 97.83224064708415 97.83224064708415" height="97.83224064708415" width="97.83224064708415"><g><svg></svg></g><g><svg viewBox="0 0 97.83224064708415 97.83224064708415" height="97.83224064708415" width="97.83224064708415"><g><path d="M0 48.916c0-27.016 21.9-48.916 48.916-48.916 27.016 0 48.916 21.9 48.916 48.916 0 27.016-21.9 48.916-48.916 48.916-27.016 0-48.916-21.9-48.916-48.916zM48.916 93.244c24.481 0 44.328-19.846 44.328-44.328 0-24.481-19.846-44.328-44.328-44.327-24.481 0-44.328 19.846-44.327 44.327 0 24.481 19.846 44.328 44.327 44.328z" data-fill-palette-color="tertiary" fill="#35185a" stroke="transparent"></path><ellipse rx="46.95947551060039" ry="46.95947551060039" cx="48.916120323542074" cy="48.916120323542074" fill="#35185a" stroke="transparent" stroke-width="0" fill-opacity="1" data-fill-palette-color="tertiary"></ellipse></g><g transform="matrix(1,0,0,1,25.78481673104474,23.47539391502934)"><svg viewBox="0 0 46.26260718499467 50.88145281702547" height="50.88145281702547" width="46.26260718499467"><g><svg viewBox="0 0 46.26260718499467 50.88145281702547" height="50.88145281702547" width="46.26260718499467"><g><svg viewBox="0 0 46.26260718499467 50.88145281702547" height="50.88145281702547" width="46.26260718499467"><g id="textblocktransform"><svg viewBox="0 0 46.26260718499467 50.88145281702547" height="50.88145281702547" width="46.26260718499467" id="textblock"><g><svg viewBox="0 0 46.26260718499467 50.88145281702547" height="50.88145281702547" width="46.26260718499467"><g><svg viewBox="0 0 46.26260718499467 50.88145281702547" height="50.88145281702547" width="46.26260718499467"><g><svg xmlns="http://www.w3.org/2000/svg" xmlns:xlink="http://www.w3.org/1999/xlink" version="1.0" x="0" y="0" viewBox="2 0 12.883127534945315 14.169375348513816" style="enable-background:new 0 0 16 16;" xml:space="preserve" height="50.88145281702547" width="46.26260718499467" class="icon-icon-0" data-fill-palette-color="quaternary" id="icon-0"><path d="M10.216 14.068c-0.122 0.135-0.322 0.135-0.444 0.001l-2.769-3.084c-0.123-0.135-0.118-0.351 0.011-0.479l0.475-0.476c0.129-0.128 0.338-0.127 0.464 0.004L9.758 11.9c0.127 0.131 0.332 0.128 0.454-0.007l3.424-3.752c0.123-0.134 0.334-0.145 0.47-0.022l0.42 0.33c0.458 0.458 0.494 0.506 0 1L10.216 14.068z" fill="#ffffff" data-fill-palette-color="quaternary"></path><path d="M7.5 2C7 2 7 3 7 3h1C8 3 8 2 7.5 2z" fill="#ffffff" data-fill-palette-color="quaternary"></path><path d="M12 2h-2C9.914 1 9 0 7.5 0S5.086 1 5 2H3c0 0-1 0-1 1 0 0.815 0 9 0 10s1 1 1 1h5.628l-2.5-2.485c-0.42-0.461-0.191-1.052 0.25-1.492l0.75-0.747c0.217-0.217 0.444-0.248 0.75-0.248 0.309 0 0.785 0.279 1 0.502l1.145 1.25L13 7.571C13 7.571 13 4 13 3S12 2 12 2zM4.5 8H4c0 0-0.5 0-0.5-0.5S4 7 4 7h0.5C4.5 7 5 7 5 7.5S4.5 8 4.5 8zM4.5 6H4c0 0-0.5 0-0.5-0.5S4 5 4 5h0.5C4.5 5 5 5 5 5.5S4.5 6 4.5 6zM11 8H6.5C6.5 8 6 8 6 7.5S6.5 7 6.5 7H11c0 0 0.5 0 0.5 0.5S11 8 11 8zM11 6H6.5C6.5 6 6 6 6 5.5S6.5 5 6.5 5H11c0 0 0.5 0 0.5 0.5S11 6 11 6zM3 4c0 0 0-1 1-1s2 0 2 0 0-1.938 1.5-1.938S9.027 3 9 3c0 0 1 0 2 0s1 1 1 1H3z" fill="#ffffff" data-fill-palette-color="quaternary"></path></svg></g></svg></g></svg></g></svg></g></svg></g><g></g></svg></g></svg></g></svg></g><defs></defs></svg><rect width="97.83224064708415" height="97.83224064708415" fill="none" stroke="none" visibility="hidden"></rect></g></svg></g></svg>